#!OML:ASF H:\ManfredETheater\Project 1\Capture day 1\Session 1\subject.ASF
:FULLY-SPECIFIED
:DEGREES
272
root 2.1586 16.0717 -5.90192 -154.325 -0.282776 173.505
lowerback 18.3423 -2.92918 -1.53683
upperback 0.798317 -4.2128 2.49612
thorax -9.11257 -1.9951 4.68738
lowerneck -20.0708 -0.662613 -3.34865
upperneck -6.68345 1.2803 -1.67846
head 1.21039 1.27747 0.137842
rclavicle -9.14409e-015 -1.98785e-014
rhumerus -74.8376 -2.72288 -75.539
rradius 93.1178
rwrist -16.9764
rhand -30.9175 15.682
rfingers 7.12502
rthumb -4.20347 -14.2562
lclavicle -9.14409e-015 -1.98785e-014
lhumerus -20.9542 -14.0174 90.4327
lradius 125.645
lwrist 11.3108
lhand -25.3822 -5.54775
lfingers 7.12502
lthumb 1.14244 24.4289
rfemur -75.3181 -11.427 27.8989
rtibia 71.1098
rfoot -16.3172 -0.450622
rtoes -6.79253
lfemur -3.83507 -6.40511 -28.38
ltibia 50.5076
lfoot 27.8719 -8.8469
ltoes 14.4893
273
root 2.17177 16.0944 -6.46954 -154.695 -0.0927772 173.856
lowerback 18.5873 -2.67618 -1.4037
upperback 0.890277 -3.86184 2.5609
thorax -9.1811 -1.8369 4.60985
lowerneck -19.8257 -0.733109 -3.18475
upperneck -6.88006 1.14911 -1.82968
head 1.10479 1.21527 0.0486187
rclavicle -5.80451e-014 2.62396e-014
rhumerus -71.5321 -3.22742 -77.0653
rradius 92.4791
rwrist -16.8034
rhand -30.6972 15.5958
rfingers 7.12502
rthumb -3.99077 -14.3466
lclavicle -5.80451e-014 2.62396e-014
lhumerus -23.095 -13.6937 91.6667
lradius 121.128
lwrist 11.11
lhand -25.6241 -5.32018
lfingers 7.12502
lthumb 0.908831 24.6576
rfemur -72.7129 -11.9886 28.7613
rtibia 70.8901
rfoot -17.5107 -1.06506
rtoes -4.03761
lfemur -6.08226 -5.46052 -27.8412
ltibia 55.711
lfoot 26.5333 -8.53003
ltoes 15.7044
274
root 2.18765 16.1175 -7.03483 -155.117 0.0362739 174.432
lowerback 18.9239 -2.39607 -1.09564
upperback 0.97491 -3.43578 2.69011
thorax -9.31942 -1.64896 4.489
lowerneck -19.5709 -0.806602 -3.02366
upperneck -7.02581 1.00873 -1.97848
head 1.01503 1.14468 -0.0387622
rclavicle -1.35174e-014 1.59028e-014
rhumerus -68.0505 -3.44934 -78.7301
rradius 91.7241
rwrist -16.8451
rhand -30.5324 15.5015
rfingers 7.12502
rthumb -3.83159 -14.4438
lclavicle -1.35174e-014 1.59028e-014
lhumerus -25.0904 -13.1339 92.8149
lradius 116.21
lwrist 11.3515
lhand -25.9078 -5.14915
lfingers 7.12502
lthumb 0.63483 24.8296
rfemur -69.8421 -12.4306 29.6477
rtibia 70.7005
rfoot -19.0533 -1.85446
rtoes -2.00413
lfemur -8.55968 -4.49259 -27.0002
ltibia 61.0603
lfoot 25.1025 -8.24794
ltoes 16.7247
275
root 2.20536 16.1388 -7.59627 -155.558 0.124437 175.254
lowerback 19.3354 -2.09344 -0.58895
upperback 1.03913 -2.93196 2.89184
thorax -9.5304 -1.43182 4.31622
lowerneck -19.3535 -0.874168 -2.86343
upperneck -7.07812 0.872178 -2.14934
head 0.96315 1.06962 -0.131214
rclavicle 2.14687e-014 1.35174e-014
rhumerus -64.427 -3.32306 -80.4738
rradius 90.9357
rwrist -17.0456
rhand -30.4199 15.3808
rfingers 7.12502
rthumb -3.72299 -14.5665
lclavicle 2.14687e-014 1.35174e-014
lhumerus -26.9064 -12.3435 93.8137
lradius 110.936
lwrist 11.8523
lhand -26.2535 -5.10568
lfingers 7.12502
lthumb 0.300929 24.8739
rfemur -66.788 -12.6724 30.5525
rtibia 70.5015
rfoot -20.8025 -2.77871
rtoes -0.932896
lfemur -11.2677 -3.47263 -25.8417
ltibia 66.4793
lfoot 23.507 -7.84034
ltoes 17.7981
276
root 2.22358 16.1504 -8.15007 -155.978 0.189413 176.298
lowerback 19.7949 -1.77842 0.107379
upperback 1.06882 -2.36174 3.15981
thorax -9.8095 -1.19217 4.08896
lowerneck -19.1778 -0.927762 -2.71875
upperneck -7.03829 0.754099 -2.34793
head 0.949133 0.997927 -0.227487
rclavicle -9.14409e-015 7.95139e-015
rhumerus -60.7051 -2.79718 -82.2322
rradius 90.1999
rwrist -17.2875
rhand -30.3207 15.2457
rfingers 7.12502
rthumb -3.62718 -14.7032
lclavicle -9.14409e-015 7.95139e-015
lhumerus -28.5523 -11.3593 94.6138
lradius 105.378
lwrist 12.3442
lhand -26.6487 -5.22301
lfingers 7.12502
lthumb -0.0807965 24.7567
rfemur -63.6807 -12.6631 31.4532
rtibia 70.3008
rfoot -22.5895 -3.76424
rtoes -1.11653
lfemur -14.241 -2.39364 -24.4008
ltibia 71.9171
lfoot 21.7328 -7.19956
ltoes 19.0864
277
root 2.24174 16.1577 -8.69831 -156.34 0.26775 177.486
lowerback 20.2531 -1.45941 0.929226
upperback 1.06194 -1.74885 3.46536
thorax -10.1247 -0.941141 3.81415
lowerneck -19.0561 -0.958774 -2.57559
upperneck -6.9155 0.665837 -2.59123
head 0.972032 0.93558 -0.335132
rclavicle -1.59028e-014 -8.74653e-015
rhumerus -56.9308 -1.83963 -83.9577
rradius 89.6328
rwrist -17.4475
rhand -30.2335 15.0774
rfingers 7.12502
rthumb -3.54296 -14.8729
lclavicle -1.59028e-014 -8.74653e-015
lhumerus -30.0627 -10.2368 95.1723
lradius 99.6522
lwrist 12.5326
lhand -27.1277 -5.47836
lfingers 7.12502
lthumb -0.543411 24.5007
rfemur -60.573 -12.3856 32.2683
rtibia 70.0755
rfoot -24.2544 -4.68379
rtoes -2.40433
lfemur -17.4781 -1.26147 -22.7797
ltibia 77.2669
lfoot 19.7906 -6.2881
ltoes 20.6522
278
root 2.25884 16.1594 -9.24166 -156.612 0.382697 178.716
lowerback 20.6608 -1.6724 1.6021
upperback 1.05563 -0.997871 3.76404
thorax -10.4139 -0.267407 3.50298
lowerneck -18.9807 -0.957817 -2.42627
upperneck -6.73173 0.619663 -2.87562
head 1.02344 0.889867 -0.45409
rclavicle -7.95139e-015 1.43125e-014
rhumerus -53.158 -0.449326 -85.6086
rradius 89.3586
rwrist -17.4375
rhand -30.1213 14.8598
rfingers 7.12502
rthumb -3.43457 -15.0923
lclavicle -7.95139e-015 1.43125e-014
lhumerus -31.5257 -9.04394 95.4673
lradius 93.954
lwrist 12.2192
lhand -27.6485 -5.80376
lfingers 7.12502
lthumb -1.04642 24.1734
rfemur -57.55 -11.8781 32.9418
rtibia 69.833
rfoot -25.7532 -5.41668
rtoes -4.32717
lfemur -20.9864 -0.0976262 -21.1113
ltibia 82.4433
lfoot 17.6442 -5.15067
ltoes 22.3449
279
root 2.27407 16.1538 -9.78149 -156.767 0.548169 179.891
lowerback 20.9435 -1.4291 2.42255
upperback 0.987367 -0.400453 4.03724
thorax -10.6851 -0.00107946 3.17143
lowerneck -18.9752 -0.913623 -2.23477
upperneck -6.4809 0.62525 -3.21059
head 1.11009 0.864294 -0.593326
rclavicle 1.03368e-014 -2.3059e-014
rhumerus -49.4365 1.34128 -87.1497
rradius 89.4892
rwrist -17.2088
rhand -29.9747 14.6397
rfingers 7.12502
rthumb -3.29306 -15.3146
lclavicle 1.03368e-014 -2.3059e-014
lhumerus -33.0567 -7.87122 95.4981
lradius 88.5399
lwrist 11.4118
lhand -28.2029 -6.11044
lfingers 7.12502
lthumb -1.58184 23.8634
rfemur -54.6617 -11.2169 33.437
rtibia 69.5753
rfoot -27.034 -5.99518
rtoes -6.79256
lfemur -24.7844 1.06134 -19.5324
ltibia 87.3578
lfoot 15.293 -3.88202
ltoes 23.9978
